<?xml version="1.0" encoding="utf-8"?>
<!-- Generator: Adobe Illustrator 18.0.0, SVG Export Plug-In . SVG Version: 6.00 Build 0)  -->
<!DOCTYPE svg PUBLIC "-//W3C//DTD SVG 1.1//EN" "http://www.w3.org/Graphics/SVG/1.1/DTD/svg11.dtd">
<svg version="1.1" id="Layer_1" xmlns="http://www.w3.org/2000/svg" xmlns:xlink="http://www.w3.org/1999/xlink" x="0px" y="0px"
	 viewBox="0 0 32.3 29.5" enable-background="new 0 0 32.3 29.5" xml:space="preserve">
<g>
	<g>
		<path opacity="0.3" fill="#1D1D1B" d="M17.6,10.1c-2.6,0-4.6,2.1-4.6,4.6c0,2.6,2.1,4.6,4.6,4.6c2.6,0,4.6-2.1,4.6-4.6
			C22.2,12.2,20.1,10.1,17.6,10.1z M17.6,18.3c-1.9,0-3.5-1.6-3.5-3.5s1.6-3.5,3.5-3.5c1.9,0,3.5,1.6,3.5,3.5S19.5,18.3,17.6,18.3z"
			/>
		<circle fill="#5A6468" cx="17.6" cy="14.7" r="2.5"/>
		<path fill="#5A6468" d="M2.9,0v29.5h29.5V0H2.9z M17.6,28.2c-7.4,0-13.4-6-13.4-13.4c0-7.4,6-13.4,13.4-13.4S31,7.3,31,14.7
			C31,22.1,25,28.2,17.6,28.2z"/>
		<path fill="#FFFFFF" d="M17.6,1.3c-7.4,0-13.4,6-13.4,13.4c0,7.4,6,13.4,13.4,13.4c7.4,0,13.4-6,13.4-13.4C31,7.3,25,1.3,17.6,1.3
			z M17.6,27.5c-7.1,0-12.8-5.7-12.8-12.8S10.5,1.9,17.6,1.9c7.1,0,12.8,5.7,12.8,12.8S24.7,27.5,17.6,27.5z"/>
	</g>
	<rect x="0" y="0" fill="#2E3D44" width="2.8" height="29.5"/>
</g>
</svg>
