<?xml version="1.0" encoding="utf-8"?>
<!-- Generator: Adobe Illustrator 18.0.0, SVG Export Plug-In . SVG Version: 6.00 Build 0)  -->
<!DOCTYPE svg PUBLIC "-//W3C//DTD SVG 1.1//EN" "http://www.w3.org/Graphics/SVG/1.1/DTD/svg11.dtd">
<svg version="1.1" id="Layer_1" xmlns="http://www.w3.org/2000/svg" xmlns:xlink="http://www.w3.org/1999/xlink" x="0px" y="0px"
	 viewBox="0 0 15 15" enable-background="new 0 0 15 15" xml:space="preserve">
<path fill="#93C2CC" d="M13.9,0.6H1.1c-0.6,0-1,0.5-1,1v10c0,0.5,0.4,1,1,1h4.6c-0.2,0.7-0.4,1.4-1,1.6c-1,0.5,0.7,0.5,0.7,0.5h4
	c0,0,1.7,0,0.7-0.5c-0.5-0.3-0.8-0.9-1-1.6h4.6c0.6,0,1-0.5,1-1v-10C14.9,1,14.5,0.6,13.9,0.6z M13.9,9c0,0.6-0.4,1-1,1H2.2
	c-0.5,0-1-0.4-1-1V2.5c0-0.6,0.5-1,1-1h10.7c0.6,0,1,0.4,1,1V9z"/>
</svg>
