<?xml version="1.0" encoding="utf-8"?>
<!-- Generator: Adobe Illustrator 18.0.0, SVG Export Plug-In . SVG Version: 6.00 Build 0)  -->
<!DOCTYPE svg PUBLIC "-//W3C//DTD SVG 1.1//EN" "http://www.w3.org/Graphics/SVG/1.1/DTD/svg11.dtd">
<svg version="1.1" id="Layer_1" xmlns="http://www.w3.org/2000/svg" xmlns:xlink="http://www.w3.org/1999/xlink" x="0px" y="0px"
	 viewBox="0 0 256.2 13.5" enable-background="new 0 0 256.2 13.5" xml:space="preserve">
<g>
	<path fill="#F4F4F4" stroke="#DADADA" stroke-width="0.5" stroke-miterlimit="10" d="M9.5,11.5H8.8c-1.6,0-2.9-1.3-2.9-2.9V4.8
		c0-1.6,1.3-2.9,2.9-2.9h0.8c1.6,0,2.9,1.3,2.9,2.9v3.8C12.5,10.1,11.2,11.5,9.5,11.5z"/>
	<path fill="#F4F4F4" stroke="#DADADA" stroke-width="0.5" stroke-miterlimit="10" d="M22.1,11.5h-0.8c-1.6,0-2.9-1.3-2.9-2.9V4.8
		c0-1.6,1.3-2.9,2.9-2.9h0.8c1.6,0,2.9,1.3,2.9,2.9v3.8C25,10.2,23.7,11.5,22.1,11.5z"/>
	<path fill="#F4F4F4" stroke="#DADADA" stroke-width="0.5" stroke-miterlimit="10" d="M34.7,11.5h-0.8c-1.6,0-2.9-1.3-2.9-2.9V4.7
		c0-1.6,1.3-2.9,2.9-2.9h0.8c1.6,0,2.9,1.3,2.9,2.9v3.8C37.5,10.2,36.2,11.5,34.7,11.5z"/>
	<path fill="#F4F4F4" stroke="#DADADA" stroke-width="0.5" stroke-miterlimit="10" d="M47.2,11.5h-0.9c-1.6,0-2.9-1.3-2.9-2.9V4.7
		c0-1.6,1.3-2.9,2.9-2.9h0.9c1.6,0,2.9,1.3,2.9,2.9v3.9C50.1,10.2,48.8,11.5,47.2,11.5z"/>
	<path fill="#F4F4F4" stroke="#DADADA" stroke-width="0.5" stroke-miterlimit="10" d="M59.8,11.5h-0.9c-1.6,0-2.8-1.3-2.8-2.8V4.7
		c0-1.6,1.3-2.8,2.8-2.8h0.9c1.6,0,2.8,1.3,2.8,2.8v3.9C62.6,10.2,61.3,11.5,59.8,11.5z"/>
	<path fill="#F4F4F4" stroke="#DADADA" stroke-width="0.5" stroke-miterlimit="10" d="M72.3,11.5h-1c-1.6,0-2.8-1.3-2.8-2.8v-4
		c0-1.6,1.3-2.8,2.8-2.8h1c1.6,0,2.8,1.3,2.8,2.8v4C75.1,10.2,73.9,11.5,72.3,11.5z"/>
	<path fill="#F4F4F4" stroke="#DADADA" stroke-width="0.5" stroke-miterlimit="10" d="M84.9,11.5h-1c-1.5,0-2.8-1.3-2.8-2.8v-4
		c0-1.5,1.3-2.8,2.8-2.8h1c1.5,0,2.8,1.3,2.8,2.8v4C87.7,10.2,86.4,11.5,84.9,11.5z"/>
	<path fill="#F4F4F4" stroke="#DADADA" stroke-width="0.5" stroke-miterlimit="10" d="M97.4,11.5h-1.1c-1.5,0-2.8-1.3-2.8-2.8V4.6
		c0-1.5,1.3-2.8,2.8-2.8h1.1c1.5,0,2.8,1.3,2.8,2.8v4.1C100.2,10.2,98.9,11.5,97.4,11.5z"/>
	<path fill="#F4F4F4" stroke="#DADADA" stroke-width="0.5" stroke-miterlimit="10" d="M110,11.5h-1.1c-1.5,0-2.8-1.2-2.8-2.8V4.6
		c0-1.5,1.2-2.8,2.8-2.8h1.1c1.5,0,2.8,1.2,2.8,2.8v4.1C112.7,10.2,111.5,11.5,110,11.5z"/>
	<path fill="#F4F4F4" stroke="#DADADA" stroke-width="0.5" stroke-miterlimit="10" d="M122.5,11.5h-1.1c-1.5,0-2.7-1.2-2.7-2.7V4.6
		c0-1.5,1.2-2.7,2.7-2.7h1.1c1.5,0,2.7,1.2,2.7,2.7v4.1C125.3,10.2,124,11.5,122.5,11.5z"/>
	<path fill="#F4F4F4" stroke="#DADADA" stroke-width="0.5" stroke-miterlimit="10" d="M135.1,11.5h-1.2c-1.5,0-2.7-1.2-2.7-2.7V4.6
		c0-1.5,1.2-2.7,2.7-2.7h1.2c1.5,0,2.7,1.2,2.7,2.7v4.2C137.8,10.2,136.6,11.5,135.1,11.5z"/>
	<path fill="#F4F4F4" stroke="#DADADA" stroke-width="0.5" stroke-miterlimit="10" d="M147.6,11.5h-1.2c-1.5,0-2.7-1.2-2.7-2.7V4.6
		c0-1.5,1.2-2.7,2.7-2.7h1.2c1.5,0,2.7,1.2,2.7,2.7v4.2C150.3,10.3,149.1,11.5,147.6,11.5z"/>
	<path fill="#F4F4F4" stroke="#DADADA" stroke-width="0.5" stroke-miterlimit="10" d="M160.2,11.5h-1.3c-1.5,0-2.7-1.2-2.7-2.7V4.5
		c0-1.5,1.2-2.7,2.7-2.7h1.3c1.5,0,2.7,1.2,2.7,2.7v4.3C162.8,10.3,161.6,11.5,160.2,11.5z"/>
	<path fill="#F4F4F4" stroke="#DADADA" stroke-width="0.5" stroke-miterlimit="10" d="M172.7,11.5h-1.3c-1.5,0-2.7-1.2-2.7-2.7V4.5
		c0-1.5,1.2-2.7,2.7-2.7h1.3c1.5,0,2.7,1.2,2.7,2.7v4.3C175.4,10.3,174.2,11.5,172.7,11.5z"/>
	<path fill="#F4F4F4" stroke="#DADADA" stroke-width="0.5" stroke-miterlimit="10" d="M185.3,11.5h-1.3c-1.4,0-2.6-1.2-2.6-2.6V4.5
		c0-1.4,1.2-2.6,2.6-2.6h1.3c1.4,0,2.6,1.2,2.6,2.6v4.3C187.9,10.3,186.7,11.5,185.3,11.5z"/>
	<path fill="#F4F4F4" stroke="#DADADA" stroke-width="0.5" stroke-miterlimit="10" d="M197.8,11.5h-1.4c-1.4,0-2.6-1.2-2.6-2.6V4.5
		c0-1.4,1.2-2.6,2.6-2.6h1.4c1.4,0,2.6,1.2,2.6,2.6v4.4C200.4,10.3,199.3,11.5,197.8,11.5z"/>
	<path fill="#F4F4F4" stroke="#DADADA" stroke-width="0.5" stroke-miterlimit="10" d="M210.4,11.5H209c-1.4,0-2.6-1.2-2.6-2.6V4.4
		c0-1.4,1.2-2.6,2.6-2.6h1.4c1.4,0,2.6,1.2,2.6,2.6v4.4C213,10.3,211.8,11.5,210.4,11.5z"/>
	<path fill="#F4F4F4" stroke="#DADADA" stroke-width="0.5" stroke-miterlimit="10" d="M222.9,11.5h-1.5c-1.4,0-2.6-1.2-2.6-2.6V4.4
		c0-1.4,1.2-2.6,2.6-2.6h1.5c1.4,0,2.6,1.2,2.6,2.6v4.5C225.5,10.3,224.3,11.5,222.9,11.5z"/>
	<path fill="#F4F4F4" stroke="#DADADA" stroke-width="0.5" stroke-miterlimit="10" d="M235.5,11.5H234c-1.4,0-2.6-1.1-2.6-2.6V4.4
		c0-1.4,1.1-2.6,2.6-2.6h1.5c1.4,0,2.6,1.1,2.6,2.6v4.5C238,10.3,236.9,11.5,235.5,11.5z"/>
	<path fill="#F4F4F4" stroke="#DADADA" stroke-width="0.5" stroke-miterlimit="10" d="M248,11.5h-1.5c-1.4,0-2.5-1.1-2.5-2.5V4.4
		c0-1.4,1.1-2.5,2.5-2.5h1.5c1.4,0,2.5,1.1,2.5,2.5v4.5C250.6,10.3,249.4,11.5,248,11.5z"/>
</g>
</svg>
