<?xml version="1.0" encoding="utf-8"?>
<!-- Generator: Adobe Illustrator 18.0.0, SVG Export Plug-In . SVG Version: 6.00 Build 0)  -->
<!DOCTYPE svg PUBLIC "-//W3C//DTD SVG 1.1//EN" "http://www.w3.org/Graphics/SVG/1.1/DTD/svg11.dtd">
<svg version="1.1" id="Layer_1" xmlns="http://www.w3.org/2000/svg" xmlns:xlink="http://www.w3.org/1999/xlink" x="0px" y="0px"
	 viewBox="0 0 13.5 13.5" enable-background="new 0 0 13.5 13.5" xml:space="preserve">
<circle fill="#FFFFFF" cx="6.8" cy="6.8" r="6.8"/>
<g>
	<path fill="#CAE2E8" d="M8.2,7.5C8,7.5,8,7.5,8,7.4c0-0.1,0-0.1,0.1-0.2c0.2-0.3,0.7-1,0.7-1.8c0-1.4-0.9-2-2-2s-2,0.6-2,2
		c0,0.9,0.5,1.5,0.7,1.8c0.1,0.1,0.1,0.2,0.1,0.2c0,0.1,0,0.1-0.2,0.1c-1,0.3-2.2,1-2.2,2.2c0,0.3,0.3,0.4,0.9,0.4
		c0.7,0,4.8,0,5.5,0c0.6,0,0.9-0.2,0.9-0.4C10.3,8.5,9.2,7.8,8.2,7.5z"/>
</g>
</svg>
