<?xml version="1.0" encoding="utf-8"?>
<!-- Generator: Adobe Illustrator 18.0.0, SVG Export Plug-In . SVG Version: 6.00 Build 0)  -->
<!DOCTYPE svg PUBLIC "-//W3C//DTD SVG 1.1//EN" "http://www.w3.org/Graphics/SVG/1.1/DTD/svg11.dtd">
<svg version="1.1" id="Layer_1" xmlns="http://www.w3.org/2000/svg" xmlns:xlink="http://www.w3.org/1999/xlink" x="0px" y="0px"
	 viewBox="0 0 15 15" enable-background="new 0 0 15 15" xml:space="preserve">
<g>
	<path fill="#93C2CC" d="M10.5,3h-0.3C9.9,3,9.7,2.8,9.7,2.6V0.5c0-0.2,0.2-0.4,0.4-0.4h0.3c0.2,0,0.4,0.2,0.4,0.4v2.1
		C10.9,2.8,10.7,3,10.5,3z"/>
	<path fill="#93C2CC" d="M9.9,1.9H5.1c-0.6,0-1.1,0.5-1.1,1.1v10.7c0,0.6,0.5,1.1,1.1,1.1h4.8c0.6,0,1.1-0.5,1.1-1.1V3.1
		C11.1,2.4,10.5,1.9,9.9,1.9z M6.3,13.5c0,0.2-0.2,0.4-0.4,0.4H5.6c-0.2,0-0.4-0.2-0.4-0.4v-0.2c0-0.2,0.2-0.4,0.4-0.4h0.2
		c0.2,0,0.4,0.2,0.4,0.4V13.5z M6.3,11.9c0,0.2-0.2,0.4-0.4,0.4H5.6c-0.2,0-0.4-0.2-0.4-0.4v-0.2c0-0.2,0.2-0.4,0.4-0.4h0.2
		c0.2,0,0.4,0.2,0.4,0.4V11.9z M6.3,10.1c0,0.2-0.2,0.4-0.4,0.4H5.6c-0.2,0-0.4-0.2-0.4-0.4V9.9c0-0.2,0.2-0.4,0.4-0.4h0.2
		c0.2,0,0.4,0.2,0.4,0.4V10.1z M8.2,13.5C8.2,13.8,8,14,7.8,14H7.5c-0.2,0-0.4-0.2-0.4-0.4v-0.2c0-0.2,0.2-0.4,0.4-0.4h0.2
		c0.2,0,0.4,0.2,0.4,0.4V13.5z M8.2,11.9c0,0.2-0.2,0.4-0.4,0.4H7.5c-0.2,0-0.4-0.2-0.4-0.4v-0.2c0-0.2,0.2-0.4,0.4-0.4h0.2
		c0.2,0,0.4,0.2,0.4,0.4V11.9z M8.2,10.1c0,0.2-0.2,0.4-0.4,0.4H7.5c-0.2,0-0.4-0.2-0.4-0.4V9.9c0-0.2,0.2-0.4,0.4-0.4h0.2
		c0.2,0,0.4,0.2,0.4,0.4V10.1z M6.2,8C5.6,8,5.1,7.5,5.1,6.9V4.1C5.1,3.5,5.6,3,6.2,3h2.6c0.6,0,1.1,0.5,1.1,1.1v2.7
		C9.9,7.5,9.4,8,8.8,8H6.2z M10.1,13.5c0,0.2-0.2,0.4-0.4,0.4H9.4C9.2,14,9,13.8,9,13.5v-0.2C9,13.2,9.2,13,9.4,13h0.2
		c0.2,0,0.4,0.2,0.4,0.4V13.5z M10.1,11.9c0,0.2-0.2,0.4-0.4,0.4H9.4c-0.2,0-0.4-0.2-0.4-0.4v-0.2c0-0.2,0.2-0.4,0.4-0.4h0.2
		c0.2,0,0.4,0.2,0.4,0.4V11.9z M10.1,10.1c0,0.2-0.2,0.4-0.4,0.4H9.4c-0.2,0-0.4-0.2-0.4-0.4V9.9c0-0.2,0.2-0.4,0.4-0.4h0.2
		c0.2,0,0.4,0.2,0.4,0.4V10.1z"/>
</g>
</svg>
